# xmcd
#
# Track frame offsets:
#	150
#	10057
#	21987
#	34502
#	51710
#	72767
#	86607
#	101802
#	119852
#	132552
#
# Disc length: 1982
#
# Revision: 2
# Processed by: cddbd v1.5.1PL0 Copyright (c) Steve Scherf et al.
# Submitted via: tcd 2.0b
# Normalized: r1:TDELIM( - )
#
DISCID=9007bc0a
DTITLE=Vol 2: Blues Artists/An Anthology of Blues
DYEAR=1900
DGENRE=
TTITLE0=Buddy Guy - First Time I Met the Blues
TTITLE1=James Cotton - Off The Wall
TTITLE2=John Lee Hooker - Crawlin' Black Spider
TTITLE3=Charles Brown - Driftin' Blues
TTITLE4=Sonny Terry and Brownie McGee - Blues For the Low Lands
TTITLE5=Leadbelly - The Bourgeois Blues
TTITLE6=Pee Wee Clayton - Blues After Hours
TTITLE7=Lightnin' Hopkins - Bring Me a Shotgun
TTITLE8=Eddie "Cleanhead" Vinson - Alimony Blues
TTITLE9=B.B. King - It's My Own Fault Baby
EXTD=
EXTT0=Buddy Guy - First Time I Met the Blues
EXTT1=
EXTT2=
EXTT3=
EXTT4=
EXTT5=
EXTT6=
EXTT7=
EXTT8=
EXTT9=
PLAYORDER=
